<svg width="600" height="600" viewBox="0 0 600 600" fill="none" xmlns="http://www.w3.org/2000/svg">
  <path d="M300 580C452.5 580 580 452.5 580 300C580 147.5 452.5 20 300 20C147.5 20 20 147.5 20 300C20 452.5 147.5 580 300 580Z" fill="black"/>
  <path d="M300 560C441.385 560 555 446.385 555 305C555 163.615 441.385 50 300 50C158.615 50 45 163.615 45 305C45 446.385 158.615 560 300 560Z" fill="white"/>
  <path d="M300 540C430.269 540 535 435.269 535 305C535 174.731 430.269 70 300 70C169.731 70 65 174.731 65 305C65 435.269 169.731 540 300 540Z" fill="black"/>
</svg>